
<svg xmlns="http://www.w3.org/2000/svg" viewBox="0 0 225 225"><g fill="none" stroke-width="2"><path stroke="#85c0f0" d="M142.25 85.04q-4.25-14.82-9.54-29.29" vector-effect="non-scaling-stroke"/><path stroke="#addafd" d="M132.71 55.75c-2.55-7.39-9.22-19.45-17.58-21.26-24-5.18-57.48 68.16-65.09 86.26" vector-effect="non-scaling-stroke"/><path stroke="#bae2ff" d="M50.04 120.75q-16.73 39.28-31.7 79.29a1.42 1.25-48 0 0-.01.94q2.31 5.91 8.16 6.29 17.12 1.1 38.9.17" vector-effect="non-scaling-stroke"/><path stroke="#85c0f0" d="m65.39 207.44 8.11.1" vector-effect="non-scaling-stroke"/><path stroke="#f6f9fc" d="M73.5 207.54q8.97.29 17.94.25c5.99-.03 12.54 1.1 18.92 1.11a.32.16-7.6 0 1 .24.08l.07.11a.52.2 62.7 0 0 .33.29q9.38.5 18.75-.02a1.54 1.05-20 0 1 .91.23l1.14.88a.81.23 36.5 0 1 .47.61q-.33.91-1.51 1.36" vector-effect="non-scaling-stroke"/><path stroke="#d1d3d4" d="M130.76 212.44c-16.71-.13-31.55.17-46.27-.41-19.35-.76-38.16-.6-57.23-.88q-6.28-.09-10.64-4.69" vector-effect="non-scaling-stroke"/><path stroke="#eceded" d="M16.62 206.46q-2.72-4.82-2.84-12.71-1.22-79.04-.74-158.08c.04-6.82-.08-13.54 4.84-18.87a.55.41-49.9 0 0 .04-.72c-.33-.24-.89-.06-1.2.26-6.32 6.55-5.21 13.85-5.2 21.98q.09 63.19.12 126.38c0 2.91-.56 6.87-.22 10.45.72 7.71-.41 16.53 1.13 23.85.7 3.32.12 6.96 1.44 9.66 2.03 4.14 8.66 7.86 12.99 7.99q14.39.4 28.77-.46c.84-.05 2.46.76 3.71.75 5.31-.06 11.38.47 16.58-.52 3.55-.68 6.28.36 9.96-1.41" vector-effect="non-scaling-stroke"/><path stroke="#d1d3d4" d="M86 215.01q21.52.57 42.97-.08" vector-effect="non-scaling-stroke"/><path stroke="#f3f3f2" d="M128.97 214.93q3.64.84 7.15 1.84c7.81 2.23 17.83 1.62 25.96 1.44 6.2-.13 12.25.23 18.4.3a.57.52-63.6 0 0 .36-.14l.16-.13a1.09 1.03-63 0 1 .75-.27l9.75.34a.64.32 11.3 0 0 .44-.12l.24-.26a1.54.82-59 0 1 .8-.48c3.03-.4 7.15.21 9.88-.89q1.65-.66 3.26-1.38" vector-effect="non-scaling-stroke"/><path stroke="#f6f9fc" d="M206.12 215.18c7.4-4.5 9.36-10.76 8.14-19.03q-.54-3.64-.48-6.84.71-43.19.09-86.37c-.29-20.22-.16-40.43-.57-60.65-.17-8.02 2.43-24.39-8.13-27.7-1.97-.62-4.28-1.75-6.33-1.76q-44.95 0-89.9-.34c-4.24-.03-1.66 1.43.11 1.43q42.86-.01 85.73.07c1.53 0 15.89.8 11.6 5.16a.84.01-6.3 0 1-.82.1l-3.08.39a1.08.55-78.1 0 0-.62.77l-2 6.67a3.47 1.9-20.4 0 1-1.41 1.63l-5.16 3.36a.98.51-26.7 0 0-.51.71q.25 2.38-2.33 2.17a1.49 1.42-58.5 0 0-.93.25q-6.24 4.24-9.29 11.53c-.88 2.1-3.03 2.81-4.25 4.12q-3.7 3.98-7.38 9.27a1.48.73 73.2 0 0-.15.91q.44 4.18-3.67 3.39a1.52.51 16.3 0 0-1.06.04l-2.79 1.71a.19.13-22.4 0 1-.28-.06q-.02-.21-.1-.32-.53-.64-.61.38l-.5 6.82a1.27 1 78 0 1-.43.87c-2.25 1.71-4.64 2.27-6.34 4.49q-1.17 1.54-2.21 3.2a1.12 1.03 10.9 0 1-.77.48c-3.46.43-4.46 5.26-3.96 8.14a.65.22 75.8 0 1-.04.52l-.26.26q-.11.11-.15-.39l-.26-2.82a1.16.12 40.9 0 0-.71-.76c-.77-.69.6-3.68-2.06-1.94" vector-effect="non-scaling-stroke"/><path stroke="#eaedef" d="m206.12 215.18.12-.88a.23.18 87.6 0 0-.23-.27c-.79.3-4.09.9-4.39 1.43a.91.66-71.5 0 1-.67.48l-9.2.02" vector-effect="non-scaling-stroke"/><path stroke="#c8cdd1" d="M191.75 215.96c3.61-.63 7.53.08 10.85-1.37 3.42-1.51 7.05-2.28 7.12-7.12q0-.2.37-.89l1.38-2.62a.58.49 24.4 0 0-.34-.72c-.69-.28-.69.74-.89 1.08q-4.09 6.89-12 7.2c-21.13.83-43.32-.51-67.48.92" vector-effect="non-scaling-stroke"/><path stroke="#7cbaed" d="m73.5 207.54 2.75-.08" vector-effect="non-scaling-stroke"/><path stroke="#77c0fc" d="M76.25 207.46q11.66-.05 23.31.17c21.9.41 43.77-.2 65.79-.12a.53.53-4.6 0 0 .52-.61l-2.41-14.9" vector-effect="non-scaling-stroke"/><path stroke="#7cbaed" d="M163.46 192q-7.83-54.03-21.21-106.96" vector-effect="non-scaling-stroke"/><path stroke="#0586f0" d="M163.46 192q-.87-.16-1.03-1.09-2.65-15.88-5.59-31.73-.2-1.07-1.17-3.74c-1.04-2.86-.64-6.55-1.11-8.9-3.05-15.37-7.66-34.8-11.74-52.1q-.52-2.2-2.84-7.98c-1.68-4.17-2.1-8.12-2.95-12.46a1.17.74 19 0 0-.52-.65q-1.82-1.11-3.71.24a1.8.63 47.3 0 1-1.61-.86q-3-3.16-6.72-.45-1.82 1.32-2.16 2.05-.33.67-.97 1.01-1.27.69-.58-.35.69-1.04.85-2.32.05-.42-.18-.24-.17.14-.37 0a.43.22 34.8 0 0-.46-.06l-6.47 7.77a.38.29-60.4 0 1-.33.14q-.14-.03-.22-.11a.4.23 47 0 0-.41-.13c-2.37 1.73-3.71 4.6-4.95 6.18-2.02 2.61-3.81 4.82-5.1 7.98-1.55 3.8-4.07 10.91-6.3 12.69a1.83 1.51-14.8 0 0-.56.78q-1.11 3.39-1.89 6.86c-.54 2.45-2.05 4.82-2.48 7.53a1.78 1.74-20.5 0 1-.41.87c-3.23 3.72-3.53 9.72-4.05 14.4-.58 5.22-2.64 9.97-3.26 15.35q-.03.25-.29.5a1.3.45 89 0 0-.27.83l-.58 6.18a.3.02-85.8 0 0 0 .29c.59.22-.75 6.45-.99 7.22q-3.39 10.76-3.99 13.57c-1.06 4.97-.66 13.87-3.45 21.26a1.66.69 66.7 0 0 .01.94l.71 2.93a.81.01 76 0 0 .2.77q.31.22.73.29" vector-effect="non-scaling-stroke"/><path stroke="#3fa3f0" d="M65.39 207.44q6.15-42.45 19.36-83.15" vector-effect="non-scaling-stroke"/><path stroke="#c5c6c7" d="M191.75 215.96q-5.23-.32-10.45-.42c-3.48-.07-8.02.79-12.15.37-13.27-1.35-26.84-1.11-40.18-.98" vector-effect="non-scaling-stroke"/><path stroke="#329bee" d="M132.71 55.75q-4 3.01-8.06 5.94c-20.97 15.11-31.61 38.94-39.9 62.6" vector-effect="non-scaling-stroke"/><path stroke="#67bdfd" d="M84.75 124.29q-.11-.05-.24.06a.26.22-43.6 0 1-.31.02c-4.71-4.2-7.58-1.85-12.83-2.18q-3.28-.21-6.56.2a.49.43 83 0 1-.48-.43c-.18-1.43-6.51-.67-7.56-.43q-4.34 1.01-4.8-.22-.57-1.54-1.22-.03-.13.32-.34.01l-.37-.54" vector-effect="non-scaling-stroke"/><path stroke="#bec1c2" d="M16.62 206.46q-1.87 2.07.52 3.45a1.3.68 18.3 0 1 .58.6q.61 1.8 2.53 1.48a.45.37 75.2 0 1 .44.32l.06.2a1.15.63 6.8 0 0 .79.56q6.37 1.67 8.96 1.66 27.76-.13 55.5.28" vector-effect="non-scaling-stroke"/><path stroke="#80cbff" d="m17.79 66-.06 111.42q0 .61.25.05c16.6-36.62 32.95-74.62 53.87-108.99" vector-effect="non-scaling-stroke"/><path stroke="#91d0ff" d="M71.85 68.48Q87.7 41.77 107.66 18.4q.54-.63-.29-.63-39.34-.07-78.3.16-11.17.06-11.29 11.06-.12 11.6.01 37.01" vector-effect="non-scaling-stroke"/><path stroke="#129cff" d="M71.85 68.48q-2.64-3.06-6.8-3.23c-.58-.03-.8-.19-.86-.77a.75.6-88.7 0 0-.47-.62q-6-1.52-12.23-1.37-.74.01-.19-.4.21-.16-.05-.2-2.73-.46-3.75-.45-12.28.21-24.56.36c-1.58.02-2.85.67-4.42.86a.63.53-89.5 0 0-.48.56L17.79 66" vector-effect="non-scaling-stroke"/></g><path fill="#fff" d="M0 0h225v225H0V0Zm142.25 85.04q-4.25-14.82-9.54-29.29c-2.55-7.39-9.22-19.45-17.58-21.26-24-5.18-57.48 68.16-65.09 86.26q-16.73 39.28-31.7 79.29a1.42 1.25-48 0 0-.01.94q2.31 5.91 8.16 6.29 17.12 1.1 38.9.17l8.11.1q8.97.29 17.94.25c5.99-.03 12.54 1.1 18.92 1.11a.32.16-7.6 0 1 .24.08l.07.11a.52.2 62.7 0 0 .33.29q9.38.5 18.75-.02a1.54 1.05-20 0 1 .91.23l1.14.88a.81.23 36.5 0 1 .47.61q-.33.91-1.51 1.36c-16.71-.13-31.55.17-46.27-.41-19.35-.76-38.16-.6-57.23-.88q-6.28-.09-10.64-4.69-2.72-4.82-2.84-12.71-1.22-79.04-.74-158.08c.04-6.82-.08-13.54 4.84-18.87a.55.41-49.9 0 0 .04-.72c-.33-.24-.89-.06-1.2.26-6.32 6.55-5.21 13.85-5.2 21.98q.09 63.19.12 126.38c0 2.91-.56 6.87-.22 10.45.72 7.71-.41 16.53 1.13 23.85.7 3.32.12 6.96 1.44 9.66 2.03 4.14 8.66 7.86 12.99 7.99q14.39.4 28.77-.46c.84-.05 2.46.76 3.71.75 5.31-.06 11.38.47 16.58-.52 3.55-.68 6.28.36 9.96-1.41q21.52.57 42.97-.08 3.64.84 7.15 1.84c7.81 2.23 17.83 1.62 25.96 1.44 6.2-.13 12.25.23 18.4.3a.57.52-63.6 0 0 .36-.14l.16-.13a1.09 1.03-63 0 1 .75-.27l9.75.34a.64.32 11.3 0 0 .44-.12l.24-.26a1.54.82-59 0 1 .8-.48c3.03-.4 7.15.21 9.88-.89q1.65-.66 3.26-1.38c7.4-4.5 9.36-10.76 8.14-19.03q-.54-3.64-.48-6.84.71-43.19.09-86.37c-.29-20.22-.16-40.43-.57-60.65-.17-8.02 2.43-24.39-8.13-27.7-1.97-.62-4.28-1.75-6.33-1.76q-44.95 0-89.9-.34c-4.24-.03-1.66 1.43.11 1.43q42.86-.01 85.73.07c1.53 0 15.89.8 11.6 5.16a.84.01-6.3 0 1-.82.1l-3.08.39a1.08.55-78.1 0 0-.62.77l-2 6.67a3.47 1.9-20.4 0 1-1.41 1.63l-5.16 3.36a.98.51-26.7 0 0-.51.71q.25 2.38-2.33 2.17a1.49 1.42-58.5 0 0-.93.25q-6.24 4.24-9.29 11.53c-.88 2.1-3.03 2.81-4.25 4.12q-3.7 3.98-7.38 9.27a1.48.73 73.2 0 0-.15.91q.44 4.18-3.67 3.39a1.52.51 16.3 0 0-1.06.04l-2.79 1.71a.19.13-22.4 0 1-.28-.06q-.02-.21-.1-.32-.53-.64-.61.38l-.5 6.82a1.27 1 78 0 1-.43.87c-2.25 1.71-4.64 2.27-6.34 4.49q-1.17 1.54-2.21 3.2a1.12 1.03 10.9 0 1-.77.48c-3.46.43-4.46 5.26-3.96 8.14a.65.22 75.8 0 1-.04.52l-.26.26q-.11.11-.15-.39l-.26-2.82a1.16.12 40.9 0 0-.71-.76c-.77-.69.6-3.68-2.06-1.94ZM17.79 66l-.06 111.42q0 .61.25.05c16.6-36.62 32.95-74.62 53.87-108.99Q87.7 41.77 107.66 18.4q.54-.63-.29-.63-39.34-.07-78.3.16-11.17.06-11.29 11.06-.12 11.6.01 37.01Z"/><path fill="#edf3f9" d="m206.12 215.18.12-.88a.23.18 87.6 0 0-.23-.27c-.79.3-4.09.9-4.39 1.43a.91.66-71.5 0 1-.67.48l-9.2.02c3.61-.63 7.53.08 10.85-1.37 3.42-1.51 7.05-2.28 7.12-7.12q0-.2.37-.89l1.38-2.62a.58.49 24.4 0 0-.34-.72c-.69-.28-.69.74-.89 1.08q-4.09 6.89-12 7.2c-21.13.83-43.32-.51-67.48.92q1.18-.45 1.51-1.36a.81.23 36.5 0 0-.47-.61l-1.14-.88a1.54 1.05-20 0 0-.91-.23q-9.37.52-18.75.02a.52.2 62.7 0 1-.33-.29l-.07-.11a.32.16-7.6 0 0-.24-.08c-6.38-.01-12.93-1.14-18.92-1.11q-8.97.04-17.94-.25l2.75-.08q11.66-.05 23.31.17c21.9.41 43.77-.2 65.79-.12a.53.53-4.6 0 0 .52-.61l-2.41-14.9q-7.83-54.03-21.21-106.96c2.66-1.74 1.29 1.25 2.06 1.94a1.16.12 40.9 0 1 .71.76l.26 2.82q.04.5.15.39l.26-.26a.65.22 75.8 0 0 .04-.52c-.5-2.88.5-7.71 3.96-8.14a1.12 1.03 10.9 0 0 .77-.48q1.04-1.66 2.21-3.2c1.7-2.22 4.09-2.78 6.34-4.49a1.27 1 78 0 0 .43-.87l.5-6.82q.08-1.02.61-.38.08.11.1.32a.19.13-22.4 0 0 .28.06l2.79-1.71a1.52.51 16.3 0 1 1.06-.04q4.11.79 3.67-3.39a1.48.73 73.2 0 1 .15-.91q3.68-5.29 7.38-9.27c1.22-1.31 3.37-2.02 4.25-4.12q3.05-7.29 9.29-11.53a1.49 1.42-58.5 0 1 .93-.25q2.58.21 2.33-2.17a.98.51-26.7 0 1 .51-.71l5.16-3.36a3.47 1.9-20.4 0 0 1.41-1.63l2-6.67a1.08.55-78.1 0 1 .62-.77l3.08-.39a.84.01-6.3 0 0 .82-.1c4.29-4.36-10.07-5.16-11.6-5.16q-42.87-.08-85.73-.07c-1.77 0-4.35-1.46-.11-1.43q44.95.34 89.9.34c2.05.01 4.36 1.14 6.33 1.76 10.56 3.31 7.96 19.68 8.13 27.7.41 20.22.28 40.43.57 60.65q.62 43.18-.09 86.37-.06 3.2.48 6.84c1.22 8.27-.74 14.53-8.14 19.03Z"/><path fill="#d8dbda" d="M16.62 206.46q-1.87 2.07.52 3.45a1.3.68 18.3 0 1 .58.6q.61 1.8 2.53 1.48a.45.37 75.2 0 1 .44.32l.06.2a1.15.63 6.8 0 0 .79.56q6.37 1.67 8.96 1.66 27.76-.13 55.5.28c-3.68 1.77-6.41.73-9.96 1.41-5.2.99-11.27.46-16.58.52-1.25.01-2.87-.8-3.71-.75q-14.38.86-28.77.46c-4.33-.13-10.96-3.85-12.99-7.99-1.32-2.7-.74-6.34-1.44-9.66-1.54-7.32-.41-16.14-1.13-23.85-.34-3.58.22-7.54.22-10.45q-.03-63.19-.12-126.38c-.01-8.13-1.12-15.43 5.2-21.98.31-.32.87-.5 1.2-.26a.55.41-49.9 0 1-.04.72c-4.92 5.33-4.8 12.05-4.84 18.87q-.48 79.04.74 158.08.12 7.89 2.84 12.71Z"/><path fill="#23a0ff" d="M71.85 68.48q-2.64-3.06-6.8-3.23c-.58-.03-.8-.19-.86-.77a.75.6-88.7 0 0-.47-.62q-6-1.52-12.23-1.37-.74.01-.19-.4.21-.16-.05-.2-2.73-.46-3.75-.45-12.28.21-24.56.36c-1.58.02-2.85.67-4.42.86a.63.53-89.5 0 0-.48.56L17.79 66q-.13-25.41-.01-37.01.12-11 11.29-11.06 38.96-.23 78.3-.16.83 0 .29.63Q87.7 41.77 71.85 68.48Z"/><path fill="#5ab5fa" d="M132.71 55.75q-4 3.01-8.06 5.94c-20.97 15.11-31.61 38.94-39.9 62.6q-.11-.05-.24.06a.26.22-43.6 0 1-.31.02c-4.71-4.2-7.58-1.85-12.83-2.18q-3.28-.21-6.56.2a.49.43 83 0 1-.48-.43c-.18-1.43-6.51-.67-7.56-.43q-4.34 1.01-4.8-.22-.57-1.54-1.22-.03-.13.32-.34.01l-.37-.54c7.61-18.1 41.09-91.44 65.09-86.26 8.36 1.81 15.03 13.87 17.58 21.26Z"/><path fill="#0a80e1" d="M132.71 55.75q5.29 14.47 9.54 29.29 13.38 52.93 21.21 106.96-.87-.16-1.03-1.09-2.65-15.88-5.59-31.73-.2-1.07-1.17-3.74c-1.04-2.86-.64-6.55-1.11-8.9-3.05-15.37-7.66-34.8-11.74-52.1q-.52-2.2-2.84-7.98c-1.68-4.17-2.1-8.12-2.95-12.46a1.17.74 19 0 0-.52-.65q-1.82-1.11-3.71.24a1.8.63 47.3 0 1-1.61-.86q-3-3.16-6.72-.45-1.82 1.32-2.16 2.05-.33.67-.97 1.01-1.27.69-.58-.35.69-1.04.85-2.32.05-.42-.18-.24-.17.14-.37 0a.43.22 34.8 0 0-.46-.06l-6.47 7.77a.38.29-60.4 0 1-.33.14q-.14-.03-.22-.11a.4.23 47 0 0-.41-.13c-2.37 1.73-3.71 4.6-4.95 6.18-2.02 2.61-3.81 4.82-5.1 7.98-1.55 3.8-4.07 10.91-6.3 12.69a1.83 1.51-14.8 0 0-.56.78q-1.11 3.39-1.89 6.86c-.54 2.45-2.05 4.82-2.48 7.53a1.78 1.74-20.5 0 1-.41.87c-3.23 3.72-3.53 9.72-4.05 14.4-.58 5.22-2.64 9.97-3.26 15.35q-.03.25-.29.5a1.3.45 89 0 0-.27.83l-.58 6.18a.3.02-85.8 0 0 0 .29c.59.22-.75 6.45-.99 7.22q-3.39 10.76-3.99 13.57c-1.06 4.97-.66 13.87-3.45 21.26a1.66.69 66.7 0 0 .01.94l.71 2.93a.81.01 76 0 0 .2.77q.31.22.73.29l-2.75.08-8.11-.1q6.15-42.45 19.36-83.15c8.29-23.66 18.93-47.49 39.9-62.6q4.06-2.93 8.06-5.94Z"/><path fill="#0197ff" d="M71.85 68.48c-20.92 34.37-37.27 72.37-53.87 108.99q-.25.56-.25-.05L17.79 66l.25-2.78a.63.53-89.5 0 1 .48-.56c1.57-.19 2.84-.84 4.42-.86q12.28-.15 24.56-.36 1.02-.01 3.75.45.26.04.05.2-.55.41.19.4 6.23-.15 12.23 1.37a.75.6-88.7 0 1 .47.62c.06.58.28.74.86.77q4.16.17 6.8 3.23Z"/><path fill="#008cff" d="m163.46 192 2.41 14.9a.53.53-4.6 0 1-.52.61c-22.02-.08-43.89.53-65.79.12q-11.65-.22-23.31-.17-.42-.07-.73-.29a.81.01 76 0 1-.2-.77l-.71-2.93a1.66.69 66.7 0 1-.01-.94c2.79-7.39 2.39-16.29 3.45-21.26q.6-2.81 3.99-13.57c.24-.77 1.58-7 .99-7.22a.3.02-85.8 0 1 0-.29l.58-6.18a1.3.45 89 0 1 .27-.83q.26-.25.29-.5c.62-5.38 2.68-10.13 3.26-15.35.52-4.68.82-10.68 4.05-14.4a1.78 1.74-20.5 0 0 .41-.87c.43-2.71 1.94-5.08 2.48-7.53q.78-3.47 1.89-6.86a1.83 1.51-14.8 0 1 .56-.78c2.23-1.78 4.75-8.89 6.3-12.69 1.29-3.16 3.08-5.37 5.1-7.98 1.24-1.58 2.58-4.45 4.95-6.18a.4.23 47 0 1 .41.13q.08.08.22.11a.38.29-60.4 0 0 .33-.14l6.47-7.77a.43.22 34.8 0 1 .46.06q.2.14.37 0 .23-.18.18.24-.16 1.28-.85 2.32-.69 1.04.58.35.64-.34.97-1.01.34-.73 2.16-2.05 3.72-2.71 6.72.45a1.8.63 47.3 0 0 1.61.86q1.89-1.35 3.71-.24a1.17.74 19 0 1 .52.65c.85 4.34 1.27 8.29 2.95 12.46q2.32 5.78 2.84 7.98c4.08 17.3 8.69 36.73 11.74 52.1.47 2.35.07 6.04 1.11 8.9q.97 2.67 1.17 3.74 2.94 15.85 5.59 31.73.16.93 1.03 1.09Z"/><path fill="#74c5ff" d="M84.75 124.29q-13.21 40.7-19.36 83.15-21.78.93-38.9-.17-5.85-.38-8.16-6.29a1.42 1.25-48 0 1 .01-.94q14.97-40.01 31.7-79.29l.37.54q.21.31.34-.01.65-1.51 1.22.03.46 1.23 4.8.22c1.05-.24 7.38-1 7.56.43a.49.43 83 0 0 .48.43q3.28-.41 6.56-.2c5.25.33 8.12-2.02 12.83 2.18a.26.22-43.6 0 0 .31-.02q.13-.11.24-.06Z"/><path fill="#a3a6a9" d="M191.75 215.96q-5.23-.32-10.45-.42c-3.48-.07-8.02.79-12.15.37-13.27-1.35-26.84-1.11-40.18-.98q-21.45.65-42.97.08-27.74-.41-55.5-.28-2.59.01-8.96-1.66a1.15.63 6.8 0 1-.79-.56l-.06-.2a.45.37 75.2 0 0-.44-.32q-1.92.32-2.53-1.48a1.3.68 18.3 0 0-.58-.6q-2.39-1.38-.52-3.45 4.36 4.6 10.64 4.69c19.07.28 37.88.12 57.23.88 14.72.58 29.56.28 46.27.41 24.16-1.43 46.35-.09 67.48-.92q7.91-.31 12-7.2c.2-.34.2-1.36.89-1.08a.58.49 24.4 0 1 .34.72l-1.38 2.62q-.37.69-.37.89c-.07 4.84-3.7 5.61-7.12 7.12-3.32 1.45-7.24.74-10.85 1.37Z"/><path fill="#e7e6e5" d="M206.12 215.18q-1.61.72-3.26 1.38c-2.73 1.1-6.85.49-9.88.89a1.54.82-59 0 0-.8.48l-.24.26a.64.32 11.3 0 1-.44.12l-9.75-.34a1.09 1.03-63 0 0-.75.27l-.16.13a.57.52-63.6 0 1-.36.14c-6.15-.07-12.2-.43-18.4-.3-8.13.18-18.15.79-25.96-1.44q-3.51-1-7.15-1.84c13.34-.13 26.91-.37 40.18.98 4.13.42 8.67-.44 12.15-.37q5.22.1 10.45.42l9.2-.02a.91.66-71.5 0 0 .67-.48c.3-.53 3.6-1.13 4.39-1.43a.23.18 87.6 0 1 .23.27l-.12.88Z"/></svg>